<svg id="Layer_1" data-name="Layer 1" xmlns="http://www.w3.org/2000/svg" viewBox="0 0 489.87 454.87"><defs><style>.cls-1{fill:#b0b8be;}</style></defs><title>comment</title><path class="cls-1" d="M12,57c3.86-11.7,8.9-22.57,19.26-29.89C39.46,21.28,48.32,18,58.43,18q198.21,0.1,396.42.05c26.56,0,47,21,47,48.23q0,131.61,0,263.22c0,26.18-20.76,47.58-46.19,47.58q-131.53,0-263.06.19a15.55,15.55,0,0,0-10,4.33C155.29,409.26,128.25,437.21,101,465c-3.86,4-7.67,9.76-14,7.29-6.56-2.56-5-9.46-5-15.06-0.06-26.38,0-52.76,0-80.68-32.22,3.87-59.58-1.7-70-38.35V57Z" transform="translate(-12 -18.01)"></path></svg>