<svg id="Layer_1" data-name="Layer 1" xmlns="http://www.w3.org/2000/svg" viewBox="0 0 244.79 243.75"><defs><style>.cls-1{fill:#94979c;}</style></defs><title>config_network</title><path class="cls-1" d="M122.4,9.06C189.79,9,244.71,63.62,244.79,130.7c.08,67.47-54.87,122.19-122.64,122.12C54.8,252.74,0,198,0,130.93,0,63.67,54.84,9.09,122.4,9.06Zm112.54,117a111,111,0,0,0-25.07-65.77L174.64,75c4.23,16.52,6.09,33.66,6.59,51Zm-25,75.51a111.13,111.13,0,0,0,25-65.64H181.49c-.72,8.72-1.14,17.29-2.22,25.78s-2.86,17-4.28,25.21Zm-175,0L69.8,186.89a235.18,235.18,0,0,1-6.52-51H9.84A111.12,111.12,0,0,0,34.9,201.57Zm0-141.27A110.88,110.88,0,0,0,9.89,126H63.3a232.91,232.91,0,0,1,6.5-51ZM117.33,126V82.61L79.25,77.55A215.86,215.86,0,0,0,73.08,126ZM79.24,184.27l38.11-5V136H73C73.52,152.59,75.25,168.83,79.24,184.27Zm86-106.66-37.82,5v43.36h43.94A212.81,212.81,0,0,0,165.25,77.61Zm6.1,58.32H127.4v43.3l37.88,5A213.33,213.33,0,0,0,171.34,135.93Zm-89,58.31a5.78,5.78,0,0,0,.09,1.17c4.09,12.35,9.28,24.16,17.57,34.36,4,4.95,8.64,9.23,14.66,11.73.85.35,1.76.58,2.73.89V189.6A161.65,161.65,0,0,0,82.33,194.24ZM82,67.5a162.59,162.59,0,0,0,35.39,4.72V19.47a12.71,12.71,0,0,0-2.89,1c-3.5,2.31-7.3,4.33-10.31,7.17-9.08,8.6-14.49,19.56-19,31C84.11,61.46,83.17,64.36,82,67.5Zm45.27,174.78a25.22,25.22,0,0,0,9.69-5.1,57.27,57.27,0,0,0,12.92-15,118.75,118.75,0,0,0,12.47-27.93,162.27,162.27,0,0,0-35.09-4.6ZM162.23,67.63a15.42,15.42,0,0,0-.35-1.74,119.77,119.77,0,0,0-11.57-25.58c-4-6.52-8.66-12.57-15.11-16.93a88.32,88.32,0,0,0-7.83-4.23v53.1A168.06,168.06,0,0,0,162.23,67.63Zm40.33,141.76a163.74,163.74,0,0,0-30.67-12.57c-5.11,15.75-11.66,30.4-23,42.92C167.79,236,189.91,223.3,202.56,209.39ZM148.89,22.12c11.4,12.6,17.9,27.3,23,42.91a165.78,165.78,0,0,0,30.57-12.54C193.88,40.89,165.53,24.77,148.89,22.12ZM72.13,197a164.74,164.74,0,0,0-29.81,12.36c8.22,11.4,40.91,29.94,53,30.06a77.68,77.68,0,0,1-13.54-19.92C78.4,212.21,75.42,204.71,72.13,197Zm23-174.69a110.88,110.88,0,0,0-53.07,30A164.58,164.58,0,0,0,72.62,64.93C77.74,49.31,84.21,34.67,95.15,22.31Z" transform="translate(0 -9.06)"></path></svg>